<?xml version="1.0" standalone="no"?>
<!DOCTYPE svg PUBLIC "-//W3C//DTD SVG 20010904//EN"
 "http://www.w3.org/TR/2001/REC-SVG-20010904/DTD/svg10.dtd">
<svg version="1.0" xmlns="http://www.w3.org/2000/svg"
 width="1182.000000pt" height="1280.000000pt" viewBox="0 0 1182.000000 1280.000000"
 preserveAspectRatio="xMidYMid meet">
<metadata>
Created by potrace 1.15, written by Peter Selinger 2001-2017
</metadata>
<g transform="translate(0.000000,1280.000000) scale(0.100000,-0.100000)"
fill="#000000" stroke="none">
<path d="M6530 12790 c-886 -35 -1760 -147 -2395 -306 -749 -187 -1258 -441
-1434 -714 -55 -85 -74 -152 -70 -249 3 -65 10 -89 43 -155 120 -244 525 -485
1117 -666 151 -46 169 -52 119 -44 -62 12 -367 113 -508 170 -444 180 -732
404 -784 610 -6 27 -14 52 -17 56 -4 4 -5 -330 -3 -743 2 -602 0 -750 -10
-754 -7 -2 -93 -11 -191 -20 -976 -87 -1655 -447 -2052 -1086 -139 -224 -239
-482 -293 -754 -42 -207 -47 -266 -46 -520 0 -206 4 -276 23 -395 84 -547 306
-1097 654 -1620 522 -782 1151 -1287 1806 -1450 l106 -26 5 -1355 5 -1355 39
-80 c204 -416 1153 -779 2501 -958 1364 -181 2929 -161 4218 55 985 164 1713
431 2019 740 58 60 87 98 120 165 l43 87 6 4991 c4 3908 8 5004 18 5051 72
347 -370 690 -1209 938 -669 199 -1493 324 -2475 377 -261 14 -1094 20 -1355
10z m-2495 -2161 c14 -6 9 -7 -15 -3 -19 4 -44 11 -55 15 -14 6 -9 7 15 3 19
-4 44 -11 55 -15z m52 -15 c-3 -3 -12 -4 -19 -1 -8 3 -5 6 6 6 11 1 17 -2 13
-5z m80 -20 c-3 -3 -12 -4 -19 -1 -8 3 -5 6 6 6 11 1 17 -2 13 -5z m-1569
-3526 c1 -1172 -2 -2018 -7 -2018 -5 0 -60 26 -123 58 -453 232 -871 660
-1173 1201 -277 497 -433 1073 -395 1463 47 496 210 796 550 1017 196 128 491
230 795 276 61 9 117 18 125 20 8 1 62 2 120 1 l105 -1 3 -2017z"/>
</g>
</svg>
